<mxfile host="app.diagrams.net" agent="Mozilla/5.0 (Windows NT 10.0; Win64; x64) AppleWebKit/537.36 (KHTML, like Gecko) Chrome/140.0.0.0 Safari/537.36" version="28.2.1">
  <diagram name="Page-1" id="4vjaePxt8hJmB_1m73Hc">
    <mxGraphModel dx="1471" dy="1668" grid="1" gridSize="10" guides="1" tooltips="1" connect="1" arrows="1" fold="1" page="1" pageScale="1" pageWidth="850" pageHeight="1100" math="0" shadow="0">
      <root>
        <mxCell id="0" />
        <mxCell id="1" parent="0" />
        <mxCell id="87p6amoQ7XiuBhZTHv8e-1" value="СРАВНЕНИЕ" style="rounded=0;whiteSpace=wrap;html=1;" parent="1" vertex="1">
          <mxGeometry x="50" y="270" width="120" height="60" as="geometry" />
        </mxCell>
        <mxCell id="87p6amoQ7XiuBhZTHv8e-2" value="R1" style="rounded=0;whiteSpace=wrap;html=1;" parent="1" vertex="1">
          <mxGeometry x="170" y="270" width="50" height="60" as="geometry" />
        </mxCell>
        <mxCell id="87p6amoQ7XiuBhZTHv8e-3" value="А2" style="rounded=0;whiteSpace=wrap;html=1;" parent="1" vertex="1">
          <mxGeometry x="220" y="270" width="50" height="60" as="geometry" />
        </mxCell>
        <mxCell id="87p6amoQ7XiuBhZTHv8e-5" value="DC" style="shape=trapezoid;perimeter=trapezoidPerimeter;whiteSpace=wrap;html=1;fixedSize=1;rotation=-90;" parent="1" vertex="1">
          <mxGeometry y="420" width="120" height="50" as="geometry" />
        </mxCell>
        <mxCell id="VAsp2LrHcUiWLGwf6JHy-4" style="edgeStyle=orthogonalEdgeStyle;rounded=0;orthogonalLoop=1;jettySize=auto;html=1;entryX=0.5;entryY=1;entryDx=0;entryDy=0;" edge="1" parent="1" source="87p6amoQ7XiuBhZTHv8e-6" target="87p6amoQ7XiuBhZTHv8e-5">
          <mxGeometry relative="1" as="geometry" />
        </mxCell>
        <mxCell id="87p6amoQ7XiuBhZTHv8e-6" value="УУ" style="whiteSpace=wrap;html=1;aspect=fixed;" parent="1" vertex="1">
          <mxGeometry x="210" y="405" width="80" height="80" as="geometry" />
        </mxCell>
        <mxCell id="87p6amoQ7XiuBhZTHv8e-7" value="РСозу" style="rounded=0;whiteSpace=wrap;html=1;" parent="1" vertex="1">
          <mxGeometry x="30" y="-10" width="120" height="60" as="geometry" />
        </mxCell>
        <mxCell id="87p6amoQ7XiuBhZTHv8e-8" value="ОЗУ" style="rounded=0;whiteSpace=wrap;html=1;" parent="1" vertex="1">
          <mxGeometry x="30" y="50" width="120" height="60" as="geometry" />
        </mxCell>
        <mxCell id="87p6amoQ7XiuBhZTHv8e-9" value="РАозу" style="rounded=0;whiteSpace=wrap;html=1;" parent="1" vertex="1">
          <mxGeometry x="30" y="110" width="120" height="60" as="geometry" />
        </mxCell>
        <mxCell id="87p6amoQ7XiuBhZTHv8e-10" value="РСрон" style="rounded=0;whiteSpace=wrap;html=1;" parent="1" vertex="1">
          <mxGeometry x="240" y="-10" width="120" height="60" as="geometry" />
        </mxCell>
        <mxCell id="87p6amoQ7XiuBhZTHv8e-11" value="РОН" style="rounded=0;whiteSpace=wrap;html=1;" parent="1" vertex="1">
          <mxGeometry x="240" y="50" width="120" height="60" as="geometry" />
        </mxCell>
        <mxCell id="87p6amoQ7XiuBhZTHv8e-12" value="РАрон" style="rounded=0;whiteSpace=wrap;html=1;" parent="1" vertex="1">
          <mxGeometry x="240" y="110" width="120" height="60" as="geometry" />
        </mxCell>
        <mxCell id="87p6amoQ7XiuBhZTHv8e-13" value="Р1алу" style="rounded=0;whiteSpace=wrap;html=1;" parent="1" vertex="1">
          <mxGeometry x="425" y="-10" width="65" height="60" as="geometry" />
        </mxCell>
        <mxCell id="87p6amoQ7XiuBhZTHv8e-14" value="АЛУ" style="rounded=0;whiteSpace=wrap;html=1;" parent="1" vertex="1">
          <mxGeometry x="425" y="50" width="120" height="60" as="geometry" />
        </mxCell>
        <mxCell id="87p6amoQ7XiuBhZTHv8e-15" value="РРалу" style="rounded=0;whiteSpace=wrap;html=1;" parent="1" vertex="1">
          <mxGeometry x="425" y="110" width="120" height="60" as="geometry" />
        </mxCell>
        <mxCell id="87p6amoQ7XiuBhZTHv8e-16" value="" style="endArrow=none;html=1;rounded=0;" parent="1" edge="1">
          <mxGeometry width="50" height="50" relative="1" as="geometry">
            <mxPoint x="-20" y="220" as="sourcePoint" />
            <mxPoint x="931" y="220" as="targetPoint" />
          </mxGeometry>
        </mxCell>
        <mxCell id="VAsp2LrHcUiWLGwf6JHy-3" value="ША" style="edgeLabel;html=1;align=center;verticalAlign=middle;resizable=0;points=[];" vertex="1" connectable="0" parent="87p6amoQ7XiuBhZTHv8e-16">
          <mxGeometry x="-0.96" relative="1" as="geometry">
            <mxPoint x="-29" y="-20" as="offset" />
          </mxGeometry>
        </mxCell>
        <mxCell id="87p6amoQ7XiuBhZTHv8e-17" value="" style="endArrow=none;html=1;rounded=0;" parent="1" edge="1">
          <mxGeometry width="50" height="50" relative="1" as="geometry">
            <mxPoint x="-18" y="-60" as="sourcePoint" />
            <mxPoint x="933" y="-60" as="targetPoint" />
          </mxGeometry>
        </mxCell>
        <mxCell id="VAsp2LrHcUiWLGwf6JHy-2" value="ШД" style="edgeLabel;html=1;align=center;verticalAlign=middle;resizable=0;points=[];" vertex="1" connectable="0" parent="87p6amoQ7XiuBhZTHv8e-17">
          <mxGeometry x="-0.9642" y="3" relative="1" as="geometry">
            <mxPoint x="-19" y="-17" as="offset" />
          </mxGeometry>
        </mxCell>
        <mxCell id="87p6amoQ7XiuBhZTHv8e-18" value="Р2алу" style="rounded=0;whiteSpace=wrap;html=1;" parent="1" vertex="1">
          <mxGeometry x="490" y="-10" width="55" height="60" as="geometry" />
        </mxCell>
        <mxCell id="87p6amoQ7XiuBhZTHv8e-19" value="СЧАК" style="rounded=0;whiteSpace=wrap;html=1;" parent="1" vertex="1">
          <mxGeometry x="397.5" y="280" width="120" height="60" as="geometry" />
        </mxCell>
        <mxCell id="87p6amoQ7XiuBhZTHv8e-20" value="ТФ1" style="rounded=0;whiteSpace=wrap;html=1;" parent="1" vertex="1">
          <mxGeometry x="545" y="-10" width="45" height="40" as="geometry" />
        </mxCell>
        <mxCell id="87p6amoQ7XiuBhZTHv8e-21" value="ТФ1" style="rounded=0;whiteSpace=wrap;html=1;" parent="1" vertex="1">
          <mxGeometry x="545" y="30" width="45" height="40" as="geometry" />
        </mxCell>
        <mxCell id="87p6amoQ7XiuBhZTHv8e-24" value="" style="shape=crossbar;whiteSpace=wrap;html=1;rounded=1;" parent="1" vertex="1">
          <mxGeometry x="30" y="180" width="120" height="20" as="geometry" />
        </mxCell>
        <mxCell id="87p6amoQ7XiuBhZTHv8e-25" value="" style="shape=crossbar;whiteSpace=wrap;html=1;rounded=1;" parent="1" vertex="1">
          <mxGeometry x="240" y="180" width="120" height="20" as="geometry" />
        </mxCell>
        <mxCell id="87p6amoQ7XiuBhZTHv8e-27" value="" style="shape=crossbar;whiteSpace=wrap;html=1;rounded=1;" parent="1" vertex="1">
          <mxGeometry x="425" y="180" width="120" height="20" as="geometry" />
        </mxCell>
        <mxCell id="87p6amoQ7XiuBhZTHv8e-28" value="" style="shape=crossbar;whiteSpace=wrap;html=1;rounded=1;" parent="1" vertex="1">
          <mxGeometry x="397.5" y="350" width="120" height="20" as="geometry" />
        </mxCell>
        <mxCell id="87p6amoQ7XiuBhZTHv8e-29" value="" style="shape=crossbar;whiteSpace=wrap;html=1;rounded=1;" parent="1" vertex="1">
          <mxGeometry x="50" y="340" width="220" height="20" as="geometry" />
        </mxCell>
        <mxCell id="hYeJq-xYVNIXQvJbZImF-2" value="" style="edgeStyle=elbowEdgeStyle;elbow=vertical;endArrow=classic;html=1;curved=0;rounded=0;endSize=8;startSize=8;" parent="1" edge="1">
          <mxGeometry width="50" height="50" relative="1" as="geometry">
            <mxPoint x="90" y="220" as="sourcePoint" />
            <mxPoint x="90" y="190" as="targetPoint" />
          </mxGeometry>
        </mxCell>
        <mxCell id="hYeJq-xYVNIXQvJbZImF-4" value="" style="edgeStyle=elbowEdgeStyle;elbow=vertical;endArrow=classic;html=1;curved=0;rounded=0;endSize=8;startSize=8;entryX=0.5;entryY=0.5;entryDx=0;entryDy=0;entryPerimeter=0;" parent="1" target="87p6amoQ7XiuBhZTHv8e-25" edge="1">
          <mxGeometry width="50" height="50" relative="1" as="geometry">
            <mxPoint x="300" y="220" as="sourcePoint" />
            <mxPoint x="330" y="180" as="targetPoint" />
          </mxGeometry>
        </mxCell>
        <mxCell id="hYeJq-xYVNIXQvJbZImF-6" value="" style="shape=crossbar;whiteSpace=wrap;html=1;rounded=1;" parent="1" vertex="1">
          <mxGeometry x="50" y="240" width="120" height="20" as="geometry" />
        </mxCell>
        <mxCell id="hYeJq-xYVNIXQvJbZImF-7" value="" style="shape=crossbar;whiteSpace=wrap;html=1;rounded=1;" parent="1" vertex="1">
          <mxGeometry x="170" y="240" width="50" height="20" as="geometry" />
        </mxCell>
        <mxCell id="hYeJq-xYVNIXQvJbZImF-12" value="" style="shape=crossbar;whiteSpace=wrap;html=1;rounded=1;" parent="1" vertex="1">
          <mxGeometry x="220" y="240" width="50" height="20" as="geometry" />
        </mxCell>
        <mxCell id="VAsp2LrHcUiWLGwf6JHy-7" style="edgeStyle=orthogonalEdgeStyle;rounded=0;orthogonalLoop=1;jettySize=auto;html=1;exitX=0.5;exitY=0.5;exitDx=0;exitDy=0;exitPerimeter=0;" edge="1" parent="1" source="hYeJq-xYVNIXQvJbZImF-13">
          <mxGeometry relative="1" as="geometry">
            <mxPoint x="457.5" y="220" as="targetPoint" />
          </mxGeometry>
        </mxCell>
        <mxCell id="hYeJq-xYVNIXQvJbZImF-13" value="" style="shape=crossbar;whiteSpace=wrap;html=1;rounded=1;" parent="1" vertex="1">
          <mxGeometry x="397.5" y="250" width="120" height="20" as="geometry" />
        </mxCell>
        <mxCell id="hYeJq-xYVNIXQvJbZImF-14" value="" style="shape=crossbar;whiteSpace=wrap;html=1;rounded=1;" parent="1" vertex="1">
          <mxGeometry x="30" y="-40" width="120" height="20" as="geometry" />
        </mxCell>
        <mxCell id="hYeJq-xYVNIXQvJbZImF-15" value="" style="shape=crossbar;whiteSpace=wrap;html=1;rounded=1;" parent="1" vertex="1">
          <mxGeometry x="240" y="-40" width="120" height="20" as="geometry" />
        </mxCell>
        <mxCell id="hYeJq-xYVNIXQvJbZImF-16" value="" style="shape=crossbar;whiteSpace=wrap;html=1;rounded=1;" parent="1" vertex="1">
          <mxGeometry x="425" y="-40" width="65" height="20" as="geometry" />
        </mxCell>
        <mxCell id="hYeJq-xYVNIXQvJbZImF-17" value="" style="shape=crossbar;whiteSpace=wrap;html=1;rounded=1;" parent="1" vertex="1">
          <mxGeometry x="490" y="-40" width="65" height="20" as="geometry" />
        </mxCell>
        <mxCell id="VAsp2LrHcUiWLGwf6JHy-1" value="" style="endArrow=classic;html=1;rounded=0;entryX=0.5;entryY=0.5;entryDx=0;entryDy=0;entryPerimeter=0;" edge="1" parent="1" target="87p6amoQ7XiuBhZTHv8e-27">
          <mxGeometry width="50" height="50" relative="1" as="geometry">
            <mxPoint x="485" y="220" as="sourcePoint" />
            <mxPoint x="700" y="210" as="targetPoint" />
          </mxGeometry>
        </mxCell>
        <mxCell id="VAsp2LrHcUiWLGwf6JHy-5" style="edgeStyle=orthogonalEdgeStyle;rounded=0;orthogonalLoop=1;jettySize=auto;html=1;entryX=0.5;entryY=0.5;entryDx=0;entryDy=0;entryPerimeter=0;exitX=0.5;exitY=0;exitDx=0;exitDy=0;" edge="1" parent="1" source="87p6amoQ7XiuBhZTHv8e-5" target="hYeJq-xYVNIXQvJbZImF-6">
          <mxGeometry relative="1" as="geometry">
            <Array as="points">
              <mxPoint x="10" y="445" />
              <mxPoint x="10" y="230" />
              <mxPoint x="110" y="230" />
            </Array>
          </mxGeometry>
        </mxCell>
        <mxCell id="VAsp2LrHcUiWLGwf6JHy-6" value="" style="endArrow=classic;html=1;rounded=0;entryX=0.5;entryY=0.5;entryDx=0;entryDy=0;entryPerimeter=0;" edge="1" parent="1" target="87p6amoQ7XiuBhZTHv8e-28">
          <mxGeometry width="50" height="50" relative="1" as="geometry">
            <mxPoint x="640" y="220" as="sourcePoint" />
            <mxPoint x="740" y="260" as="targetPoint" />
            <Array as="points">
              <mxPoint x="640" y="400" />
              <mxPoint x="550" y="400" />
              <mxPoint x="458" y="400" />
            </Array>
          </mxGeometry>
        </mxCell>
        <mxCell id="VAsp2LrHcUiWLGwf6JHy-8" value="" style="endArrow=classic;html=1;rounded=0;entryX=1;entryY=1;entryDx=0;entryDy=0;" edge="1" parent="1" target="87p6amoQ7XiuBhZTHv8e-19">
          <mxGeometry width="50" height="50" relative="1" as="geometry">
            <mxPoint x="550" y="340" as="sourcePoint" />
            <mxPoint x="590" y="320" as="targetPoint" />
          </mxGeometry>
        </mxCell>
      </root>
    </mxGraphModel>
  </diagram>
</mxfile>
